# xmcd CD database file
#
# Track frame offsets:
#	150
#	23045
#	44473
#	71497
#	93361
#	114498
#	134742
#	145599
#	171316
#	194115
#
# Disc length: 3001 seconds
#
# Revision: 0
# Processed by: cddbd v1.5.2PL0 Copyright (c) Steve Scherf et al.
# Submitted via: CDex 1.51
#
DISCID=930bb70a
DTITLE=Tina Malia - The Silent Awakening
DYEAR=2006
DGENRE=New Age
TTITLE0=The Silent Awakening
TTITLE1=Heaven
TTITLE2=All Roads
TTITLE3=Heal This Land
TTITLE4=Sound of the River
TTITLE5=Beholding
TTITLE6=Holy Morn
TTITLE7=In Sunlight
TTITLE8=Wild Horses
TTITLE9=Walking Home
EXTD=YEAR: 2006
EXTT0=
EXTT1=
EXTT2=
EXTT3=
EXTT4=
EXTT5=
EXTT6=
EXTT7=
EXTT8=
EXTT9=
PLAYORDER=
